<?xml version="1.0" encoding="UTF-8"?>
<svg width="155px" height="19px" viewBox="0 0 155 19" version="1.1" xmlns="http://www.w3.org/2000/svg" xmlns:xlink="http://www.w3.org/1999/xlink">
    <!-- Generator: Sketch 52.3 (67297) - http://www.bohemiancoding.com/sketch -->
    <title>logo-mochileros</title>
    <desc>Created with Sketch.</desc>
    <g id="logo-mochileros" stroke="none" stroke-width="1" fill="none" fill-rule="evenodd">
        <path d="M1.392,17.2 L1.392,1.904 L1.008,1.456 C0.94399968,1.39199968 0.92799984,1.31733376 0.96,1.232 C0.99200016,1.14666624 1.0613328,1.104 1.168,1.104 L4.624,1.104 C4.68800032,1.104 4.74133312,1.13599968 4.784,1.2 L8.016,5.552 L10.96,1.2 C10.9813334,1.13599968 11.0346662,1.104 11.12,1.104 L14.576,1.104 C14.6826672,1.104 14.7573331,1.14133296 14.8,1.216 C14.8426669,1.29066704 14.8213338,1.37066624 14.736,1.456 L14.352,1.904 L14.352,17.2 L14.736,17.616 C14.8000003,17.6800003 14.8160002,17.7599995 14.784,17.856 C14.7519998,17.9520005 14.6826672,18 14.576,18 L10.736,18 C10.6293328,18 10.5600002,17.9520005 10.528,17.856 C10.4959998,17.7599995 10.5119997,17.6800003 10.576,17.616 L10.992,17.2 L10.992,6.992 L8.048,11.152 C7.91999936,11.3013341 7.8026672,11.3013341 7.696,11.152 L4.752,7.408 L4.752,17.2 L5.168,17.616 C5.21066688,17.6586669 5.21600016,17.7333328 5.184,17.84 C5.15199984,17.9466672 5.0826672,18 4.976,18 L1.168,18 C1.0613328,18 0.99200016,17.9573338 0.96,17.872 C0.92799984,17.7866662 0.94399968,17.7013338 1.008,17.616 L1.392,17.2 Z M25.872,18.256 C24.7199942,18.256 23.7653371,18.1280013 23.008,17.872 C22.2506629,17.6159987 21.6266691,17.2320026 21.136,16.72 C20.7733315,16.2933312 20.4906677,15.776003 20.288,15.168 C20.0853323,14.559997 19.984,13.8080045 19.984,12.912 L19.984,6.16 C19.984,5.3066624 20.0853323,4.57066976 20.288,3.952 C20.4906677,3.33333024 20.7733315,2.8106688 21.136,2.384 C21.6266691,1.87199744 22.2559962,1.49333456 23.024,1.248 C23.7920038,1.00266544 24.7413277,0.88 25.872,0.88 C28.0693443,0.88 29.6373286,1.39199488 30.576,2.416 C31.3226704,3.22667072 31.696,4.47465824 31.696,6.16 L31.696,12.912 C31.696,14.6400086 31.3226704,15.9093293 30.576,16.72 C30.0853309,17.2320026 29.4560038,17.6159987 28.688,17.872 C27.9199962,18.1280013 26.9813389,18.256 25.872,18.256 Z M28.304,7.024 C28.304,6.44799712 28.2346674,5.98400176 28.096,5.632 C27.9573326,5.27999824 27.7760011,5.00800096 27.552,4.816 C27.3279989,4.62399904 27.082668,4.49066704 26.816,4.416 C26.549332,4.34133296 26.2773347,4.304 26,4.304 L25.68,4.304 C24.8693293,4.304 24.2720019,4.53866432 23.888,5.008 C23.5679984,5.47733568 23.408,6.14932896 23.408,7.024 L23.408,12.08 C23.408,12.6346694 23.4773326,13.0879982 23.616,13.44 C23.7546674,13.7920018 23.9306656,14.0693323 24.144,14.272 C24.3573344,14.4746677 24.6026653,14.613333 24.88,14.688 C25.1573347,14.762667 25.4239987,14.8 25.68,14.8 L26,14.8 C26.8533376,14.8 27.4613315,14.5546691 27.824,14.064 C28.1440016,13.5946643 28.304,12.9333376 28.304,12.08 L28.304,7.024 Z M42.736,18.256 C40.5386557,18.256 38.9600048,17.7440051 38,16.72 C37.6373315,16.2933312 37.3546677,15.776003 37.152,15.168 C36.9493323,14.559997 36.848,13.8080045 36.848,12.912 L36.848,6.16 C36.848,4.47465824 37.2319962,3.21600416 38,2.384 C38.4906691,1.850664 39.1199962,1.46666784 39.888,1.232 C40.6560038,0.99733216 41.6053277,0.88 42.736,0.88 C44.9333443,0.88 46.5013286,1.38132832 47.44,2.384 C48.1866704,3.19467072 48.56,4.4533248 48.56,6.16 L48.56,6.704 C48.56,6.85333408 48.4746675,6.928 48.304,6.928 L44.944,6.928 C44.8373328,6.928 44.7626669,6.88000048 44.72,6.784 C44.6773331,6.68799952 44.6879997,6.60800032 44.752,6.544 L45.168,6.16 C45.0826662,5.64799744 44.8800016,5.2320016 44.56,4.912 C44.367999,4.67733216 44.1280014,4.51733376 43.84,4.432 C43.5519986,4.34666624 43.2266685,4.304 42.864,4.304 L42.544,4.304 C41.7119958,4.304 41.1146685,4.54933088 40.752,5.04 C40.5813325,5.27466784 40.458667,5.55733168 40.384,5.888 C40.309333,6.21866832 40.272,6.5973312 40.272,7.024 L40.272,12.08 C40.272,12.6346694 40.3413326,13.0879982 40.48,13.44 C40.6186674,13.7920018 40.7999989,14.0693323 41.024,14.272 C41.2480011,14.4746677 41.493332,14.613333 41.76,14.688 C42.026668,14.762667 42.2879987,14.8 42.544,14.8 L42.864,14.8 C43.7173376,14.8 44.3253315,14.5546691 44.688,14.064 C45.029335,13.5519974 45.2,12.8906707 45.2,12.08 L45.2,11.856 L44.784,11.472 C44.7199997,11.4293331 44.6986666,11.3493339 44.72,11.232 C44.7413334,11.1146661 44.8266659,11.056 44.976,11.056 L48.304,11.056 C48.4746675,11.056 48.56,11.1413325 48.56,11.312 L48.56,12.912 C48.56,14.6400086 48.1866704,15.9093293 47.44,16.72 C46.9493309,17.2320026 46.3200038,17.6159987 45.552,17.872 C44.7839962,18.1280013 43.8453389,18.256 42.736,18.256 Z M54.16,1.904 L53.776,1.456 C53.7119997,1.39199968 53.6959998,1.31733376 53.728,1.232 C53.7600002,1.14666624 53.8293328,1.104 53.936,1.104 L57.744,1.104 C57.8506672,1.104 57.9253331,1.14666624 57.968,1.232 C58.0106669,1.31733376 58.0000003,1.39199968 57.936,1.456 L57.52,1.904 L57.52,7.76 L61.68,7.76 L61.68,1.904 L61.296,1.456 C61.2319997,1.39199968 61.2159998,1.31733376 61.248,1.232 C61.2800002,1.14666624 61.3493328,1.104 61.456,1.104 L65.296,1.104 C65.3813338,1.104 65.4453331,1.14133296 65.488,1.216 C65.5306669,1.29066704 65.5200003,1.37066624 65.456,1.456 L65.04,1.904 L65.04,17.2 L65.456,17.616 C65.5200003,17.6800003 65.5360002,17.7599995 65.504,17.856 C65.4719998,17.9520005 65.4026672,18 65.296,18 L61.456,18 C61.3706662,18 61.3066669,17.9573338 61.264,17.872 C61.2213331,17.7866662 61.2319997,17.7013338 61.296,17.616 L61.68,17.2 L61.68,10.96 L57.52,10.96 L57.52,17.2 L57.936,17.616 C57.9786669,17.6586669 57.9840002,17.7333328 57.952,17.84 C57.9199998,17.9466672 57.8506672,18 57.744,18 L53.936,18 C53.8293328,18 53.7600002,17.9573338 53.728,17.872 C53.6959998,17.7866662 53.7119997,17.7013338 53.776,17.616 L54.16,17.2 L54.16,1.904 Z M71.184,17.2 L71.184,1.904 L70.8,1.456 C70.7359997,1.39199968 70.7199998,1.31733376 70.752,1.232 C70.7840002,1.14666624 70.8533328,1.104 70.96,1.104 L74.768,1.104 C74.8746672,1.104 74.9493331,1.14666624 74.992,1.232 C75.0346669,1.31733376 75.0240003,1.39199968 74.96,1.456 L74.544,1.904 L74.544,17.2 L74.96,17.616 C75.0026669,17.6586669 75.0080002,17.7333328 74.976,17.84 C74.9439998,17.9466672 74.8746672,18 74.768,18 L70.96,18 C70.8533328,18 70.7840002,17.9573338 70.752,17.872 C70.7199998,17.7866662 70.7359997,17.7013338 70.8,17.616 L71.184,17.2 Z M89.424,14.384 C89.4666669,14.3413331 89.5359995,14.3359998 89.632,14.368 C89.7280005,14.4000002 89.776,14.4693328 89.776,14.576 L89.776,17.776 C89.776,17.9253341 89.7120006,18 89.584,18 L80.432,18 C80.3253328,18 80.2560002,17.9573338 80.224,17.872 C80.1919998,17.7866662 80.2079997,17.7013338 80.272,17.616 L80.656,17.2 L80.656,1.872 L80.272,1.456 C80.2079997,1.37066624 80.1919998,1.29066704 80.224,1.216 C80.2560002,1.14133296 80.3253328,1.104 80.432,1.104 L84.24,1.104 C84.3466672,1.104 84.4213331,1.14666624 84.464,1.232 C84.5066669,1.31733376 84.4960003,1.39199968 84.432,1.456 L84.016,1.872 L84.016,14.768 L89.008,14.768 L89.424,14.384 Z M95.248,18 C95.1413328,18 95.0720002,17.9573338 95.04,17.872 C95.0079998,17.7866662 95.0239997,17.7013338 95.088,17.616 L95.472,17.2 L95.472,1.904 L95.088,1.456 C95.0239997,1.39199968 95.0079998,1.31733376 95.04,1.232 C95.0720002,1.14666624 95.1413328,1.104 95.248,1.104 L104.4,1.104 C104.549334,1.104 104.624,1.16799936 104.624,1.296 L104.624,4.496 C104.624,4.6026672 104.586667,4.68799968 104.512,4.752 C104.437333,4.81600032 104.346667,4.7946672 104.24,4.688 L103.856,4.304 L98.864,4.304 L98.864,7.792 L102.608,7.792 L102.992,7.376 C103.034667,7.31199968 103.109333,7.29066656 103.216,7.312 C103.322667,7.33333344 103.376,7.40799936 103.376,7.536 L103.376,11.216 C103.376,11.3226672 103.328,11.3919998 103.232,11.424 C103.136,11.4560002 103.056,11.4400003 102.992,11.376 L102.608,11.024 L98.864,11.024 L98.864,14.8 L103.856,14.8 L104.24,14.416 C104.325334,14.3306662 104.410666,14.3146664 104.496,14.368 C104.581334,14.4213336 104.624,14.5013328 104.624,14.608 L104.624,17.776 C104.624,17.9253341 104.549334,18 104.4,18 L95.248,18 Z M109.904,1.456 C109.84,1.39199968 109.824,1.31733376 109.856,1.232 C109.888,1.14666624 109.957333,1.104 110.064,1.104 L115.472,1.104 C117.093341,1.104 118.287996,1.56266208 119.056,2.48 C119.717337,3.20533696 120.048,4.28265952 120.048,5.712 L120.048,8.944 C120.048,9.88267136 119.888002,10.6719968 119.568,11.312 C119.397332,11.6746685 119.184001,11.9946653 118.928,12.272 C118.671999,12.5493347 118.362668,12.7733325 118,12.944 L119.92,17.168 L120.368,17.616 C120.453334,17.6586669 120.469334,17.7333328 120.416,17.84 C120.362666,17.9466672 120.282667,18 120.176,18 L116.144,18 C116.058666,18 115.989334,17.962667 115.936,17.888 C115.882666,17.813333 115.898666,17.7226672 115.984,17.616 L116.304,17.2 L114.64,13.52 L113.648,13.52 L113.648,17.2 L114.064,17.616 C114.170667,17.7226672 114.202667,17.813333 114.16,17.888 C114.117333,17.962667 114.042667,18 113.936,18 L110.064,18 C109.957333,18 109.888,17.9573338 109.856,17.872 C109.824,17.7866662 109.84,17.7013338 109.904,17.616 L110.288,17.2 L110.288,1.904 L109.904,1.456 Z M114.064,10.352 C114.576003,10.352 114.991998,10.3093338 115.312,10.224 C115.632002,10.1386662 115.898666,10.0106675 116.112,9.84 C116.496002,9.54133184 116.688,8.97600416 116.688,8.144 L116.688,6.48 C116.688,5.58399552 116.496002,5.00800128 116.112,4.752 C115.749332,4.45333184 115.066672,4.304 114.064,4.304 L113.648,4.304 L113.648,10.352 L114.064,10.352 Z M131.536,18.256 C130.383994,18.256 129.429337,18.1280013 128.672,17.872 C127.914663,17.6159987 127.290669,17.2320026 126.8,16.72 C126.437332,16.2933312 126.154668,15.776003 125.952,15.168 C125.749332,14.559997 125.648,13.8080045 125.648,12.912 L125.648,6.16 C125.648,5.3066624 125.749332,4.57066976 125.952,3.952 C126.154668,3.33333024 126.437332,2.8106688 126.8,2.384 C127.290669,1.87199744 127.919996,1.49333456 128.688,1.248 C129.456004,1.00266544 130.405328,0.88 131.536,0.88 C133.733344,0.88 135.301329,1.39199488 136.24,2.416 C136.98667,3.22667072 137.36,4.47465824 137.36,6.16 L137.36,12.912 C137.36,14.6400086 136.98667,15.9093293 136.24,16.72 C135.749331,17.2320026 135.120004,17.6159987 134.352,17.872 C133.583996,18.1280013 132.645339,18.256 131.536,18.256 Z M133.968,7.024 C133.968,6.44799712 133.898667,5.98400176 133.76,5.632 C133.621333,5.27999824 133.440001,5.00800096 133.216,4.816 C132.991999,4.62399904 132.746668,4.49066704 132.48,4.416 C132.213332,4.34133296 131.941335,4.304 131.664,4.304 L131.344,4.304 C130.533329,4.304 129.936002,4.53866432 129.552,5.008 C129.231998,5.47733568 129.072,6.14932896 129.072,7.024 L129.072,12.08 C129.072,12.6346694 129.141333,13.0879982 129.28,13.44 C129.418667,13.7920018 129.594666,14.0693323 129.808,14.272 C130.021334,14.4746677 130.266665,14.613333 130.544,14.688 C130.821335,14.762667 131.087999,14.8 131.344,14.8 L131.664,14.8 C132.517338,14.8 133.125332,14.5546691 133.488,14.064 C133.808002,13.5946643 133.968,12.9333376 133.968,12.08 L133.968,7.024 Z M144.176,9.008 C143.045328,8.02666176 142.490667,6.88533984 142.512,5.584 C142.533333,4.79466272 142.719998,4.1066696 143.072,3.52 C143.424002,2.9333304 143.887997,2.44800192 144.464,2.064 C145.040003,1.67999808 145.68533,1.39200096 146.4,1.2 C147.11467,1.00799904 147.84533,0.912 148.592,0.912 C149.786673,0.912 150.810662,1.19999712 151.664,1.776 C152.517338,2.35200288 153.221331,3.20532768 153.776,4.336 C153.84,4.4426672 153.808001,4.52799968 153.68,4.592 L150.896,6.416 C150.810666,6.45866688 150.730667,6.45866688 150.656,6.416 C150.581333,6.37333312 150.554667,6.2986672 150.576,6.192 L150.672,5.616 C150.373332,5.23199808 150.026669,4.906668 149.632,4.64 C149.237331,4.373332 148.762669,4.24 148.208,4.24 C148.058666,4.24 147.877334,4.25599984 147.664,4.288 C147.450666,4.32000016 147.248001,4.37866624 147.056,4.464 C146.863999,4.54933376 146.698667,4.66133264 146.56,4.8 C146.421333,4.93866736 146.341333,5.10399904 146.32,5.296 C146.277333,5.59466816 146.373332,5.86133216 146.608,6.096 C146.842668,6.33066784 147.135998,6.54399904 147.488,6.736 C147.840002,6.92800096 148.213331,7.09333264 148.608,7.232 C149.002669,7.37066736 149.338665,7.50399936 149.616,7.632 C150.149336,7.86666784 150.698664,8.13866512 151.264,8.448 C151.829336,8.75733488 152.346664,9.11999792 152.816,9.536 C153.285336,9.95200208 153.663999,10.426664 153.952,10.96 C154.240001,11.493336 154.373333,12.1013299 154.352,12.784 C154.330667,13.1466685 154.261334,13.6426635 154.144,14.272 C154.026666,14.9013365 153.754669,15.5253302 153.328,16.144 C152.325328,17.552007 150.757344,18.256 148.624,18.256 C148.026664,18.256 147.424003,18.1920006 146.816,18.064 C146.207997,17.9359994 145.637336,17.7333347 145.104,17.456 C144.570664,17.1786653 144.096002,16.8213355 143.68,16.384 C143.263998,15.9466645 142.960001,15.4186698 142.768,14.8 C142.746667,14.7146662 142.778666,14.6400003 142.864,14.576 L145.744,12.304 C145.808,12.2613331 145.888,12.2506666 145.984,12.272 C146.08,12.2933334 146.117333,12.3786659 146.096,12.528 L146,13.232 C146.234668,13.6586688 146.570664,14.0319984 147.008,14.352 C147.445336,14.6720016 147.930664,14.832 148.464,14.832 C148.954669,14.832 149.386665,14.7200011 149.76,14.496 C150.133335,14.2719989 150.362666,13.8826694 150.448,13.328 C150.490667,13.0079984 150.421334,12.7200013 150.24,12.464 C150.058666,12.2079987 149.824001,11.984001 149.536,11.792 C149.247999,11.599999 148.938668,11.4346674 148.608,11.296 C148.277332,11.1573326 147.973335,11.0346672 147.696,10.928 C147.07733,10.6933322 146.469336,10.4213349 145.872,10.112 C145.274664,9.80266512 144.709336,9.4346688 144.176,9.008 Z" id="option1--expand" fill="#000000"></path>
    </g>
</svg>